# xmcd
#
# Track frame offsets:
#	150
#	16615
#	32022
#	48335
#	63402
#	78825
#	93585
#	113735
#	127615
#	146527
#
# Disc length: 2147 seconds
#
# Revision: 1
# Processed by: cddbd v1.5.2PL0 Copyright (c) Steve Scherf et al.
# Submitted via: audiograbber 1.83.01
#
DISCID=6f08610a
DTITLE=Diogo Avelino - Melofia
DYEAR=1900
DGENRE=Nacional
TTITLE0=De Você
TTITLE1=Sessão eu gosto de...
TTITLE2=Sinuca de Bico
TTITLE3=Ojeriza ao Tédio
TTITLE4=Melodia
TTITLE5=Escorrega Arco-Íris
TTITLE6=Meus Dias
TTITLE7=Monólogos
TTITLE8=Uma Balada Leve
TTITLE9=Tenha Um Bom Dia
EXTD=
EXTT0=
EXTT1=
EXTT2=
EXTT3=
EXTT4=
EXTT5=
EXTT6=
EXTT7=
EXTT8=
EXTT9=
PLAYORDER=
